<svg width="208" height="43" xmlns="http://www.w3.org/2000/svg">

 <g>
  <title>background</title>
  <rect fill="none" id="canvas_background" height="45" width="210" y="-1" x="-1"/>
 </g>
 <g>
  <title>Layer 1</title>
  <path id="svg_1" fill="#BFECFE" d="m26.6092,4.9646c-6.3757,0 -11.5325,5.186 -11.5325,11.5558c0,6.3886 5.1568,11.5746 11.5325,11.5746c6.3757,0 11.5512,-5.186 11.5512,-11.5746c0,-6.3698 -5.1755,-11.5558 -11.5512,-11.5558z" clip-rule="evenodd" fill-rule="evenodd"/>
  <path id="svg_2" fill="#66D2FB" d="m39.3042,13.4578c5.5881,4.378 3.2254,14.4307 -5.138,15.0507c-0.0938,0 -19.4646,0.0188 -20.5335,0.0188c0.0375,-0.0188 4.6692,-5.2424 13.8015,-13.7166c3.0753,-3.2883 8.2134,-4.4345 11.87,-1.3529z" clip-rule="evenodd" fill-rule="evenodd"/>
  <path id="svg_3" fill="#00B4F9" d="m5.04408,3.89344c-9.1885,7.21536 -5.41934,23.63776 8.34462,24.65236c0.1126,0.0188 5.8132,0.0188 9.9574,0.0188c2.2315,0 4.0317,-1.8038 4.0317,-4.021c-0.0375,-1.3153 -0.0563,-2.8185 0,-4.2841l0,-3.4762c0,-2.8185 -0.075,-5.7309 -1.3314,-8.24874c-3.7317,-7.42203 -13.1827,-10.07141 -21.00232,-4.64112z" clip-rule="evenodd" fill-rule="evenodd"/>
  <path id="svg_4" fill="white" d="m0.05945,14.3994c0,7.7028 6.12829,14.0103 13.68085,14.0103c7.5526,0 13.6809,-6.3075 13.6809,-14.0103c0,-7.70288 -6.1283,-14.02953 -13.6809,-14.02953c-7.55256,0 -13.68085,6.32665 -13.68085,14.02953z" clip-rule="evenodd" fill-rule="evenodd"/>
  <path id="svg_5" fill="#86DEFF" d="m27.3779,14.8857l0,13.6227l-13.7452,0l13.7452,-13.6227z" clip-rule="evenodd" fill-rule="evenodd"/>
  <path id="svg_6" fill="white" d="m44.9299,31.2706l8.7009,0c-0.075,1.2965 -0.3375,2.5178 -0.8063,3.664c-0.4688,1.1274 -1.1251,2.1421 -1.9502,3.0252c-0.8251,0.9019 -1.819,1.5971 -2.9629,2.1045c-1.1251,0.4885 -2.4002,0.7516 -3.8066,0.7516c-1.9502,0 -3.6942,-0.4698 -5.2318,-1.3905c-1.5377,-0.9207 -2.7566,-2.1796 -3.6192,-3.8143c-0.8813,-1.616 -1.3126,-3.4574 -1.3126,-5.5243c0,-2.1045 0.4313,-3.9459 1.3314,-5.5618c0.8813,-1.5971 2.1002,-2.8561 3.6379,-3.7768c1.5376,-0.9207 3.2816,-1.3716 5.1943,-1.3716c1.9502,0 3.6566,0.4321 5.1193,1.2965c1.4439,0.8643 2.569,1.9541 3.3566,3.2694l0.7876,-0.6576c-0.6563,-1.0147 -1.4439,-1.879 -2.3253,-2.6118c-0.9001,-0.7328 -1.9314,-1.3153 -3.0753,-1.7475c-1.1439,-0.4322 -2.4378,-0.6389 -3.8629,-0.6389c-1.594,0 -3.0754,0.2819 -4.463,0.8644c-1.3689,0.5825 -2.569,1.4092 -3.5817,2.4802c-1.0313,1.0523 -1.8189,2.3112 -2.3815,3.7392c-0.5813,1.4469 -0.8626,3.0064 -0.8626,4.7163c0,1.7099 0.2813,3.2883 0.8626,4.7163c0.5626,1.4468 1.3502,2.6869 2.3815,3.758c1.0127,1.071 2.2128,1.879 3.5817,2.4615c1.3876,0.5824 2.869,0.8831 4.463,0.8831c1.6689,0 3.1503,-0.3194 4.463,-0.9395c1.3126,-0.6389 2.4377,-1.4844 3.3566,-2.5742c0.9188,-1.0899 1.6314,-2.3112 2.119,-3.7204c0.4875,-1.3905 0.7313,-2.8561 0.7313,-4.3781l-9.8448,0l0,0.9771zm19.1083,10.6539c1.4439,0 2.7003,-0.3007 3.7879,-0.9207c1.0689,-0.6013 2.044,-1.5784 2.9441,-2.9125l-0.8251,-0.5261c-0.7876,1.1838 -1.6314,2.0481 -2.5503,2.593c-0.9188,0.5449 -2.0065,0.8268 -3.2441,0.8268c-1.1626,0 -2.194,-0.3007 -3.0753,-0.9207c-0.8814,-0.6013 -1.5939,-1.4281 -2.1003,-2.4991c-0.525,-1.0522 -0.7688,-2.2736 -0.7688,-3.6264c0,-1.3341 0.2625,-2.5179 0.7876,-3.5701c0.5251,-1.0335 1.2376,-1.8414 2.1377,-2.4239c0.9189,-0.5825 1.9502,-0.8832 3.1129,-0.8832c1.0688,0 2.0439,0.2631 2.9065,0.7892c0.8626,0.5261 1.5377,1.2589 2.044,2.1796c0.5063,0.9208 0.7501,1.9542 0.7501,3.0816c0,0.1879 -0.0188,0.357 -0.0375,0.5073c-0.0375,0.1691 -0.075,0.3007 -0.1125,0.4134l0.45,-0.6576l-12.4138,0l0,0.9019l13.1452,0c0.0187,-0.1316 0.0375,-0.2819 0.0375,-0.4322c0.0187,-0.1503 0.0187,-0.2818 0.0187,-0.3946c0,-1.3904 -0.3,-2.6306 -0.8813,-3.7392c-0.6001,-1.1086 -1.4064,-1.9729 -2.419,-2.6118c-1.0127,-0.6388 -2.1753,-0.9583 -3.4879,-0.9583c-1.3689,0 -2.5691,0.3382 -3.6379,1.0147c-1.0501,0.6576 -1.894,1.5971 -2.494,2.7809c-0.6189,1.1838 -0.9189,2.5366 -0.9189,4.0774c0,1.5032 0.2813,2.8561 0.8813,4.0586c0.5814,1.1838 1.4065,2.1233 2.4378,2.8185c1.0501,0.6953 2.2128,1.0335 3.5254,1.0335zm9.076,-7.8918c0,1.522 0.3375,2.8749 1.0126,4.0586c0.6751,1.2026 1.5939,2.1421 2.7566,2.8185c1.1626,0.6765 2.4565,1.0147 3.9004,1.0147c1.4814,0 2.794,-0.3382 3.9379,-1.0147c1.1626,-0.6764 2.0815,-1.6159 2.7753,-2.8185c0.6751,-1.1837 1.0126,-2.5366 1.0126,-4.0586c0,-1.522 -0.3375,-2.8936 -1.0126,-4.0774c-0.6938,-1.1838 -1.6127,-2.1045 -2.7753,-2.7809c-1.1439,-0.6953 -2.4565,-1.0335 -3.9379,-1.0335c-1.4439,0 -2.7378,0.3382 -3.9004,1.0335c-1.1627,0.6764 -2.0815,1.5971 -2.7566,2.7809c-0.6751,1.1838 -1.0126,2.5554 -1.0126,4.0774zm1.0126,0c0,-1.3341 0.3,-2.5179 0.8813,-3.5701c0.6001,-1.0522 1.4065,-1.879 2.4191,-2.4803c1.0126,-0.5824 2.1564,-0.8831 3.3941,-0.8831c1.2564,0 2.3815,0.3007 3.3941,0.8831c0.9939,0.6013 1.8002,1.4281 2.3815,2.4803c0.6001,1.0522 0.9001,2.236 0.9001,3.5701c0,1.3341 -0.3,2.5366 -0.9001,3.5889c-0.5813,1.0522 -1.3876,1.879 -2.3815,2.4615c-1.0126,0.6012 -2.1377,0.9019 -3.3941,0.9019c-1.2377,0 -2.3815,-0.3007 -3.3941,-0.9019c-1.0126,-0.5825 -1.819,-1.4093 -2.4191,-2.4427c-0.5813,-1.0335 -0.8813,-2.236 -0.8813,-3.6077zm19.3521,-3.9459c0,-1.785 0.3938,-3.3634 1.2001,-4.7163c0.7876,-1.3528 1.8377,-2.4051 3.1316,-3.1755c1.2939,-0.7703 2.6814,-1.1461 4.2004,-1.1461c1.088,0 2.082,0.1503 3,0.4321c0.901,0.2819 1.726,0.6765 2.476,1.2026c0.75,0.5073 1.369,1.1086 1.894,1.785l0,-3.6828c-0.957,-0.8643 -2.007,-1.4844 -3.151,-1.9166c-1.125,-0.4134 -2.531,-0.62 -4.219,-0.62c-1.594,0 -3.094,0.3006 -4.4816,0.8831c-1.3877,0.5637 -2.6066,1.3904 -3.6567,2.4615c-1.0501,1.0522 -1.8752,2.3111 -2.4753,3.758c-0.5813,1.4468 -0.8813,3.0251 -0.8813,4.735c0,1.7099 0.3,3.2883 0.8813,4.7351c0.6001,1.4468 1.4252,2.7057 2.4753,3.7768c1.0501,1.0522 2.269,1.8789 3.6567,2.4614c1.3876,0.5825 2.8876,0.8644 4.4816,0.8644c1.688,0 3.094,-0.2067 4.219,-0.6201c1.144,-0.4134 2.194,-1.0522 3.151,-1.8978l0,-3.6828c-0.525,0.6764 -1.144,1.2777 -1.894,1.785c-0.75,0.5074 -1.575,0.9207 -2.476,1.2026c-0.918,0.2818 -1.912,0.4322 -3,0.4322c-1.519,0 -2.9065,-0.3946 -4.2004,-1.165c-1.2939,-0.7704 -2.344,-1.8226 -3.1316,-3.1755c-0.8063,-1.3717 -1.2001,-2.9312 -1.2001,-4.7163zm19.9901,-14.13l0,25.6482l2.625,0l0,-25.6482l-2.625,0zm5.55,18.0759c0,1.522 0.356,2.8749 1.05,4.0586c0.675,1.2026 1.613,2.1421 2.794,2.8185c1.182,0.6765 2.513,1.0147 3.976,1.0147c1.481,0 2.813,-0.3382 3.994,-1.0147c1.163,-0.6764 2.1,-1.6159 2.775,-2.8185c0.694,-1.1837 1.05,-2.5366 1.05,-4.0586c0,-1.522 -0.356,-2.8936 -1.05,-4.0774c-0.675,-1.1838 -1.612,-2.1045 -2.775,-2.7809c-1.181,-0.6953 -2.513,-1.0335 -3.994,-1.0335c-1.463,0 -2.794,0.3382 -3.976,1.0335c-1.181,0.6764 -2.119,1.5971 -2.794,2.7809c-0.694,1.1838 -1.05,2.5554 -1.05,4.0774zm2.663,0c0,-1.0522 0.225,-1.9917 0.675,-2.7997c0.45,-0.8268 1.069,-1.4656 1.838,-1.9354c0.787,-0.4509 1.669,-0.6764 2.644,-0.6764c0.994,0 1.856,0.2255 2.644,0.6764c0.769,0.4698 1.387,1.1086 1.838,1.9354c0.45,0.808 0.675,1.7475 0.675,2.7997c0,1.0522 -0.225,1.9917 -0.675,2.7997c-0.451,0.808 -1.069,1.4468 -1.838,1.9166c-0.788,0.4885 -1.65,0.714 -2.644,0.714c-0.975,0 -1.857,-0.2255 -2.644,-0.714c-0.769,-0.4698 -1.388,-1.1086 -1.838,-1.9166c-0.45,-0.808 -0.675,-1.7475 -0.675,-2.7997zm17.871,1.6535l0,-9.2071l-2.626,0l0,9.5265c0,1.8039 0.469,3.2319 1.407,4.3217c0.937,1.0711 2.194,1.5972 3.769,1.5972c1.013,0 1.894,-0.2255 2.625,-0.6765c0.75,-0.4321 1.369,-1.1086 1.875,-2.0105l0,2.3675l2.626,0l0,-15.1259l-2.626,0l0,9.2071c0,0.7328 -0.15,1.3905 -0.468,1.973c-0.319,0.5637 -0.769,1.0146 -1.35,1.334c-0.582,0.3195 -1.257,0.4698 -2.026,0.4698c-1.05,0 -1.837,-0.3194 -2.381,-0.9771c-0.544,-0.6576 -0.825,-1.5971 -0.825,-2.7997zm25.24,-19.7294l0,25.6482l2.625,0l0,-25.6482l-2.625,0zm-12.62,18.0759c0,1.6347 0.337,3.0252 1.012,4.2089c0.676,1.1838 1.576,2.1045 2.719,2.7434c1.144,0.62 2.382,0.9395 3.751,0.9395c1.256,0 2.363,-0.3195 3.3,-0.9395c0.957,-0.6389 1.688,-1.5596 2.232,-2.7434c0.525,-1.1837 0.787,-2.5742 0.787,-4.2089c0,-1.6347 -0.262,-3.044 -0.787,-4.2277c-0.544,-1.165 -1.275,-2.0669 -2.232,-2.7058c-0.937,-0.6388 -2.044,-0.9583 -3.3,-0.9583c-1.369,0 -2.607,0.3195 -3.751,0.9583c-1.143,0.6389 -2.043,1.5408 -2.719,2.7058c-0.675,1.1837 -1.012,2.593 -1.012,4.2277zm2.644,0c0,-1.165 0.244,-2.1421 0.712,-2.95c0.469,-0.808 1.107,-1.4281 1.894,-1.8414c0.788,-0.4134 1.632,-0.6201 2.551,-0.6201c0.769,0 1.519,0.2067 2.269,0.6201c0.75,0.4133 1.35,1.0334 1.837,1.8414c0.488,0.8079 0.713,1.785 0.713,2.95c0,1.165 -0.225,2.1608 -0.713,2.9688c-0.487,0.808 -1.087,1.428 -1.837,1.8414c-0.75,0.4134 -1.5,0.6201 -2.269,0.6201c-0.919,0 -1.763,-0.2067 -2.551,-0.6201c-0.787,-0.4134 -1.425,-1.0334 -1.894,-1.8414c-0.468,-0.808 -0.712,-1.8038 -0.712,-2.9688z"/>
 </g>
</svg>