<svg width="208" height="43" xmlns="http://www.w3.org/2000/svg">

 <g>
  <title>background</title>
  <rect fill="none" id="canvas_background" height="45" width="210" y="-1" x="-1"/>
 </g>
 <g>
  <title>Layer 1</title>
  <path id="svg_1" fill="#BFECFE" d="m26.6092,4.9646c-6.3757,0 -11.5325,5.186 -11.5325,11.5558c0,6.3886 5.1568,11.5746 11.5325,11.5746c6.3757,0 11.5512,-5.186 11.5512,-11.5746c0,-6.3698 -5.1755,-11.5558 -11.5512,-11.5558z" clip-rule="evenodd" fill-rule="evenodd"/>
  <path id="svg_2" fill="#66D2FB" d="m39.3042,13.4578c5.5881,4.378 3.2254,14.4307 -5.138,15.0507c-0.0938,0 -19.4646,0.0188 -20.5335,0.0188c0.0375,-0.0188 4.6692,-5.2424 13.8015,-13.7166c3.0753,-3.2883 8.2134,-4.4345 11.87,-1.3529z" clip-rule="evenodd" fill-rule="evenodd"/>
  <path id="svg_3" fill="#00B4F9" d="m5.04408,3.89344c-9.1885,7.21536 -5.41934,23.63776 8.34462,24.65236c0.1126,0.0188 5.8132,0.0188 9.9574,0.0188c2.2315,0 4.0317,-1.8038 4.0317,-4.021c-0.0375,-1.3153 -0.0563,-2.8185 0,-4.2841l0,-3.4762c0,-2.8185 -0.075,-5.7309 -1.3314,-8.24874c-3.7317,-7.42203 -13.1827,-10.07141 -21.00232,-4.64112z" clip-rule="evenodd" fill-rule="evenodd"/>
  <path id="svg_4" fill="white" d="m0.05945,14.3994c0,7.7028 6.12829,14.0103 13.68085,14.0103c7.5526,0 13.6809,-6.3075 13.6809,-14.0103c0,-7.70288 -6.1283,-14.02953 -13.6809,-14.02953c-7.55256,0 -13.68085,6.32665 -13.68085,14.02953z" clip-rule="evenodd" fill-rule="evenodd"/>
  <path id="svg_5" fill="#86DEFF" d="m27.3779,14.8857l0,13.6227l-13.7452,0l13.7452,-13.6227z" clip-rule="evenodd" fill-rule="evenodd"/>
 </g>
</svg>